<?xml version="1.0" encoding="utf-8"?>
<!-- Generator: Adobe Illustrator 24.1.2, SVG Export Plug-In . SVG Version: 6.00 Build 0)  -->
<svg version="1.1" id="Layer_1" xmlns="http://www.w3.org/2000/svg" xmlns:xlink="http://www.w3.org/1999/xlink" x="0px" y="0px"
	 viewBox="0 0 140 176" style="enable-background:new 0 0 140 176;" xml:space="preserve">
<style type="text/css">
	.st0{opacity:0.25;fill:#DDDDDD;enable-background:new    ;}
	.st1{fill:#009E7F;}
	.st2{fill:#006854;}
	.st3{fill:url(#Path_18692_1_);}
	.st4{fill:url(#Path_18693_1_);}
</style>
<g id="no_cart_in_bag_2" transform="translate(-1388 -351)">
	<ellipse id="Ellipse_2873" class="st0" cx="1458" cy="510.2" rx="69.9" ry="16.5"/>
	<path id="Path_18691" class="st1" d="M1415,368.7h84.8c9.9,0.1,17.9,8.2,17.9,18.1v108.5c0.1,9.9-7.9,18-17.9,18.1H1415
		c-9.9-0.1-17.9-8.2-17.9-18.1V386.8C1397.1,376.9,1405.1,368.8,1415,368.7z"/>
	<path id="Rectangle_1852" class="st2" d="M1415.2,368.7h84.4c10,0,18.1,8.1,18.1,18.1l0,0c0,10-8.1,18.1-18.1,18.1h-94.7
		c-4.3,0-7.7-3.5-7.7-7.7v-10.3C1397.2,376.8,1405.3,368.7,1415.2,368.7z"/>
	<path id="Rectangle_1853" class="st2" d="M1422.5,368.7h69.9c14,0,25.3,11.3,25.3,25.3l0,0c0,6-4.9,10.8-10.8,10.8H1408
		c-6,0-10.8-4.9-10.8-10.8l0,0C1397.2,380.1,1408.5,368.7,1422.5,368.7z"/>
	<path id="Path_18685" class="st2" d="M1457.4,386.8c-10,0-18.1-8.1-18.1-18.1s8.1-18.1,18.1-18.1c10,0,18.1,8.1,18.1,18.1l0,0
		C1475.5,378.7,1467.4,386.8,1457.4,386.8z M1457.4,354.7c-7.8,0.1-14,6.5-13.9,14.2c0.1,7.8,6.5,14,14.2,13.9
		c7.7-0.1,13.9-6.4,13.9-14C1471.6,360.9,1465.2,354.7,1457.4,354.7z"/>
	<path id="Path_18686" class="st1" d="M1458.1,422.9c-10,0-18.1-8.1-18.1-18.1c0-10,8.1-18.1,18.1-18.1c10,0,18.1,8.1,18.1,18.1
		C1476.2,414.8,1468.1,422.9,1458.1,422.9z M1458.1,390.8c-7.8,0.1-14,6.5-13.9,14.2c0.1,7.8,6.5,14,14.2,13.9
		c7.7-0.1,13.9-6.4,13.9-14C1472.3,397,1465.9,390.7,1458.1,390.8z"/>
	<circle id="Ellipse_2874" class="st2" cx="1457.1" cy="464.4" r="17.3"/>
	<circle id="Ellipse_2875" class="st1" cx="1457.2" cy="469.3" r="9.1"/>
	<path id="Path_18687" class="st2" d="M1431.7,437.8c2.2-3.1,4.7-5.8,7.6-8.2c2-1.7-0.9-4.7-2.9-2.9c-3.1,2.6-5.9,5.7-8.3,9
		C1426.6,437.9,1430.2,440,1431.7,437.8L1431.7,437.8z"/>
	<path id="Path_18688" class="st2" d="M1439.6,435.7c-2.4-3.4-5.1-6.4-8.3-9c-2-1.7-5,1.2-2.9,2.9c2.9,2.4,5.4,5.1,7.6,8.2
		C1437.6,440,1441.2,437.9,1439.6,435.7L1439.6,435.7z"/>
	<path id="Path_18689" class="st2" d="M1487.9,435.7c-2.4-3.4-5.1-6.4-8.3-9c-2-1.7-5,1.2-2.9,2.9c2.9,2.4,5.4,5.1,7.6,8.2
		C1485.9,440,1489.5,437.9,1487.9,435.7L1487.9,435.7z"/>
	<path id="Path_18690" class="st2" d="M1480,437.8c2.2-3.1,4.7-5.8,7.6-8.2c2-1.7-0.9-4.7-2.9-2.9c-3.1,2.6-5.9,5.7-8.3,9
		C1474.8,437.9,1478.4,440,1480,437.8L1480,437.8z"/>
	
		<linearGradient id="Path_18692_1_" gradientUnits="userSpaceOnUse" x1="815.5798" y1="815.5819" x2="814.9487" y2="815.0209" gradientTransform="matrix(15.8021 0 0 -36.1638 -11372.3662 29877.8574)">
		<stop  offset="0" style="stop-color:#029477"/>
		<stop  offset="1" style="stop-color:#009E7F"/>
	</linearGradient>
	<path id="Path_18692" class="st3" d="M1512,373.6c2.2,1.2,3.9,3.2,4.9,5.5c0.6,1.5,1,3.1,1,4.7v15.7c0,4.2-2.2,8.1-5.8,10.2
		c-6.1-4.1-10-10.7-10-18.1C1502,384.3,1506,377.7,1512,373.6z"/>
	
		<linearGradient id="Path_18693_1_" gradientUnits="userSpaceOnUse" x1="815.499" y1="815.6726" x2="814.868" y2="815.1116" gradientTransform="matrix(15.8021 0 0 -36.1638 -11477.2568 29877.8574)">
		<stop  offset="0" style="stop-color:#029477"/>
		<stop  offset="1" style="stop-color:#009E7F"/>
	</linearGradient>
	<path id="Path_18693" class="st4" d="M1403,373.6c-2.2,1.2-3.9,3.2-4.9,5.5c-0.6,1.5-1,3.1-1,4.7v15.7c0,4.2,2.2,8.1,5.8,10.2
		c6.1-4.1,10-10.7,10-18.1C1413,384.3,1409,377.7,1403,373.6z"/>
</g>
</svg>
