<?xml version="1.0" encoding="utf-8"?>
<!-- Generator: Adobe Illustrator 24.1.2, SVG Export Plug-In . SVG Version: 6.00 Build 0)  -->
<svg version="1.1" id="Layer_1" xmlns:v="https://vecta.io/nano"
	 xmlns="http://www.w3.org/2000/svg" xmlns:xlink="http://www.w3.org/1999/xlink" x="0px" y="0px" viewBox="0 0 13 13"
	 style="enable-background:new 0 0 13 13;" xml:space="preserve">
<path d="M3.2,10.7c-0.2,0-0.5-0.1-0.6-0.3c-0.3-0.3-0.3-0.9,0-1.2l6.6-6.6c0.3-0.3,0.9-0.3,1.2,0c0.3,0.3,0.3,0.9,0,1.2l-6.6,6.6
	C3.7,10.6,3.4,10.7,3.2,10.7L3.2,10.7z"/>
<path d="M9.8,10.7c-0.2,0-0.5-0.1-0.6-0.3L2.6,3.8c-0.3-0.3-0.3-0.9,0-1.2s0.9-0.3,1.2,0l6.6,6.6c0.3,0.3,0.3,0.9,0,1.2
	C10.2,10.6,10,10.7,9.8,10.7L9.8,10.7z"/>
</svg>
