<svg xmlns="http://www.w3.org/2000/svg" width="16" height="16" fill="none" xmlns:v="https://vecta.io/nano"><path d="M8.157 15.953c-.053 0-.105 0-.158 0-1.247.003-2.399-.029-3.519-.097-1.027-.062-1.965-.417-2.712-1.026-.721-.588-1.213-1.382-1.463-2.361-.217-.853-.229-1.689-.24-2.499L.046 8.001.064 6.03c.011-.809.023-1.646.24-2.499.25-.979.742-1.774 1.463-2.361C2.514.561 3.452.206 4.479.143L8.001.047l3.52.097c1.027.063 1.965.417 2.712 1.026.721.588 1.213 1.382 1.463 2.361.218.852.229 1.689.24 2.499l.018 1.969-.018 1.972c-.005.343-.288.617-.63.613a.62.62 0 0 1-.613-.63l.018-1.955-.018-1.952c-.01-.737-.021-1.499-.202-2.208-.183-.716-.534-1.29-1.044-1.705-.552-.45-1.225-.702-2.002-.749l-3.444-.095c-1.227-.003-2.353.028-3.447.095-.777.047-1.45.299-2.002.749-.51.416-.861.99-1.044 1.706-.181.71-.192 1.472-.202 2.208l-.018 1.955.018 1.952c.01.737.021 1.499.202 2.208.183.716.534 1.29 1.044 1.706.552.45 1.225.702 2.002.749l3.444.095 3.447-.095c.777-.047 1.45-.299 2.002-.749.367-.3.654-.684.853-1.143a.62.62 0 1 1 1.14.494c-.278.643-.685 1.185-1.208 1.612-.747.609-1.684.964-2.712 1.026l-3.364.097zM11.852 8a3.89 3.89 0 0 0-3.884-3.884A3.89 3.89 0 0 0 4.085 8a3.89 3.89 0 0 0 3.884 3.884A3.89 3.89 0 0 0 11.852 8zM10.61 8c0 1.456-1.185 2.641-2.641 2.641S5.328 9.456 5.328 8s1.185-2.641 2.641-2.641S10.61 6.544 10.61 8zm1.678-5.126a.93.93 0 1 0 0 1.864.93.93 0 1 0 0-1.864z" fill="#949494"/></svg>